<svg width="12" height="12" viewBox="0 0 12 12" fill="none" xmlns="http://www.w3.org/2000/svg">
<g clip-path="url(#clip0_1_46)">
<path d="M1.675 1H6.125C6.495 1 6.8 1.305 6.8 1.675V2.415C6.8 2.685 6.63 3.02 6.465 3.19L5.015 4.47C4.815 4.64 4.68 4.975 4.68 5.245V6.695C4.68 6.895 4.545 7.165 4.375 7.27L3.905 7.575C3.465 7.845 2.86 7.54 2.86 7V5.215C2.86 4.98 2.725 4.675 2.59 4.505L1.31 3.155C1.14 2.985 1.005 2.685 1.005 2.48V1.705C1 1.305 1.305 1 1.675 1Z" stroke="#2C3346" stroke-width="0.8" stroke-miterlimit="10" stroke-linecap="round" stroke-linejoin="round"/>
<path d="M1 5.99899V7.49899C1 9.99899 2 10.999 4.5 10.999H7.5C10 10.999 11 9.99899 11 7.49899V4.49899C11 2.93899 10.61 1.95899 9.705 1.44899C9.45 1.30399 8.94 1.19399 8.475 1.11899" stroke="#F85663" stroke-width="0.8" stroke-linecap="round" stroke-linejoin="round"/>
<path d="M6.5 6.5H9M5.5 8.5H9" stroke="#2C3346" stroke-width="0.8" stroke-linecap="round" stroke-linejoin="round"/>
</g>
<defs>
<clipPath id="clip0_1_46">
<rect width="12" height="12" fill="white"/>
</clipPath>
</defs>
</svg>
