<svg width="14" height="14" viewBox="0 0 14 14" fill="none" xmlns="http://www.w3.org/2000/svg">
<path d="M1.16666 8.91918V3.33084C1.16666 2.55501 1.61582 2.36834 2.16416 2.91668L3.67499 4.42751C3.90249 4.65501 4.27582 4.65501 4.49749 4.42751L6.58582 2.33334C6.63979 2.27927 6.70389 2.23636 6.77446 2.20709C6.84503 2.17782 6.92068 2.16275 6.99707 2.16275C7.07347 2.16275 7.14912 2.17782 7.21969 2.20709C7.29026 2.23636 7.35436 2.27927 7.40832 2.33334L9.50249 4.42751C9.72999 4.65501 10.1033 4.65501 10.325 4.42751L11.8358 2.91668C12.3842 2.36834 12.8333 2.55501 12.8333 3.33084V8.92501C12.8333 10.675 11.6667 11.8417 9.91666 11.8417H4.08332C2.47332 11.8358 1.16666 10.5292 1.16666 8.91918V8.91918Z" stroke="#2C3346" stroke-width="0.8" stroke-linecap="round" stroke-linejoin="round"/>
</svg>
