<svg width="24" height="24" viewBox="0 0 24 24" fill="none" xmlns="http://www.w3.org/2000/svg">
<path d="M12.119 12.78C12.0393 12.77 11.9587 12.77 11.879 12.78C11.0309 12.7517 10.227 12.3947 9.63726 11.7845C9.04756 11.1742 8.71826 10.3586 8.719 9.50999C8.719 7.69999 10.179 6.22999 11.999 6.22999C12.8584 6.22849 13.684 6.5648 14.2978 7.16639C14.9116 7.76798 15.2644 8.58668 15.2801 9.44597C15.2959 10.3053 14.9733 11.1363 14.382 11.76C13.7906 12.3837 12.9779 12.75 12.119 12.78V12.78Z" stroke="#F85663" stroke-width="1.5" stroke-linecap="round" stroke-linejoin="round"/>
<path d="M18.742 19.379C16.9043 21.0681 14.498 22.0034 12.002 21.999C9.40199 21.999 7.04199 21.009 5.26199 19.379C5.36199 18.439 5.96199 17.519 7.03199 16.799C9.77199 14.979 14.252 14.979 16.972 16.799C18.042 17.519 18.642 18.439 18.742 19.379V19.379Z" stroke="#F85663" stroke-width="1.5" stroke-linecap="round" stroke-linejoin="round"/>
<path d="M12 22C17.523 22 22 17.523 22 12C22 6.477 17.523 2 12 2C6.477 2 2 6.477 2 12C2 17.523 6.477 22 12 22Z" stroke="#2C3346" stroke-width="1.5" stroke-linecap="round" stroke-linejoin="round"/>
</svg>
