<svg width="24" height="24" viewBox="0 0 24 24" fill="none" xmlns="http://www.w3.org/2000/svg">
<path d="M12.159 10.87C12.059 10.86 11.939 10.86 11.829 10.87C10.6812 10.831 9.59362 10.3468 8.79661 9.51996C7.9996 8.69308 7.55572 7.58845 7.55898 6.44C7.55898 3.99 9.53898 2 11.999 2C13.1752 1.97878 14.3117 2.42569 15.1584 3.24241C16.0052 4.05913 16.4928 5.17876 16.514 6.355C16.5352 7.53123 16.0883 8.66772 15.2716 9.51445C14.4548 10.3612 13.3352 10.8488 12.159 10.87V10.87Z" stroke="#F85663" stroke-width="1.5" stroke-linecap="round" stroke-linejoin="round"/>
<path d="M7.15899 14.56C4.73899 16.18 4.73899 18.82 7.15899 20.43C9.90899 22.27 14.419 22.27 17.169 20.43C19.589 18.81 19.589 16.17 17.169 14.56C14.429 12.73 9.91899 12.73 7.15899 14.56V14.56Z" stroke="#2C3346" stroke-width="1.5" stroke-linecap="round" stroke-linejoin="round"/>
</svg>
