<svg width="10" height="10" viewBox="0 0 10 10" fill="none" xmlns="http://www.w3.org/2000/svg">
<g clip-path="url(#clip0_1_27)">
<path d="M9.16668 9.16668L8.33334 8.33334M4.79168 8.75001C5.31149 8.75001 5.82622 8.64762 6.30647 8.4487C6.78671 8.24977 7.22308 7.95821 7.59064 7.59064C7.95821 7.22308 8.24977 6.78671 8.4487 6.30647C8.64762 5.82622 8.75001 5.31149 8.75001 4.79168C8.75001 4.27186 8.64762 3.75714 8.4487 3.27689C8.24977 2.79664 7.95821 2.36028 7.59064 1.99271C7.22308 1.62515 6.78671 1.33358 6.30647 1.13465C5.82622 0.935729 5.31149 0.833343 4.79168 0.833344C3.74186 0.833344 2.73504 1.25038 1.99271 1.99271C1.25038 2.73504 0.833344 3.74186 0.833344 4.79168C0.833344 5.84149 1.25038 6.84831 1.99271 7.59064C2.73504 8.33297 3.74186 8.75001 4.79168 8.75001V8.75001Z" stroke="#E2E2E2" stroke-width="1.5" stroke-linecap="round" stroke-linejoin="round"/>
</g>
<defs>
<clipPath id="clip0_1_27">
<rect width="10" height="10" fill="white"/>
</clipPath>
</defs>
</svg>
