<svg width="14" height="14" viewBox="0 0 14 14" fill="none" xmlns="http://www.w3.org/2000/svg">
<g clip-path="url(#clip0_1_72)">
<path d="M9.74166 11.0717H4.25833C4.01333 11.0717 3.73916 10.8792 3.65749 10.6458L1.24249 3.89085C0.898327 2.92251 1.30083 2.62501 2.12916 3.22001L4.40416 4.84751C4.78333 5.11001 5.21499 4.97585 5.37833 4.55001L6.40499 1.81418C6.73166 0.939178 7.27416 0.939178 7.60083 1.81418L8.62749 4.55001C8.79083 4.97585 9.2225 5.11001 9.59583 4.84751L11.7308 3.32501C12.6408 2.67168 13.0783 3.00418 12.705 4.06001L10.3483 10.6575C10.2608 10.8792 9.98666 11.0717 9.74166 11.0717V11.0717Z" stroke="#2C3346" stroke-width="0.8" stroke-linecap="round" stroke-linejoin="round"/>
<path d="M3.79167 12.8333H10.2083M5.54167 8.16666H8.45834" stroke="#F85663" stroke-width="0.8" stroke-linecap="round" stroke-linejoin="round"/>
</g>
<defs>
<clipPath id="clip0_1_72">
<rect width="14" height="14" fill="white"/>
</clipPath>
</defs>
</svg>
